<svg height="53.01" viewBox="0 0 32.5 53.01" width="32.5" xmlns="http://www.w3.org/2000/svg"><path d="m30.3 29.47a15.54 15.54 0 0 1 1.82 7.3 15.87 15.87 0 1 1 -31.74 0 15.71 15.71 0 0 1 1.94-7.69c.59 11.46 30.09 5.66 27.98.39z" fill="#e50000"/><g fill="none" stroke="#e50000" stroke-miterlimit="10" stroke-width=".75"><path d="m2.32 29.08a12.74 12.74 0 0 1 1.19-1.8c6-7.64 10.4-13.42 12.71-25.36 2.44 11.9 6.93 17.65 12.69 25.36a18.89 18.89 0 0 1 1.39 2.19 15.54 15.54 0 0 1 1.82 7.3 15.87 15.87 0 1 1 -31.74 0 15.71 15.71 0 0 1 1.94-7.69z"/><path d="m2.32 29.08c.59 11.46 30.09 5.66 28 .39a2.48 2.48 0 0 0 -.21-.39"/></g></svg>